<svg width="18" height="18" viewBox="0 0 18 18" fill="none" xmlns="http://www.w3.org/2000/svg">
<path d="M17.5527 8.62971C17.5527 9.00554 17.4086 9.36885 17.1392 9.63193C16.876 9.90127 16.5126 10.0516 16.1366 10.0516H10.472V15.7141C10.472 16.0899 10.3216 16.4532 10.0522 16.7163C9.789 16.9794 9.43184 17.1297 9.05587 17.1297C8.6799 17.1297 8.31646 16.9794 8.05329 16.7163C7.78384 16.4532 7.63346 16.0899 7.63346 15.7141V10.0516H1.96888C1.59291 10.0516 1.22948 9.90127 0.966299 9.63193C0.703121 9.36885 0.552734 9.00554 0.552734 8.62971C0.552734 8.25389 0.703121 7.89685 0.966299 7.6275C1.22948 7.36442 1.59291 7.21409 1.96888 7.21409H7.63346V1.5516C7.63346 1.17577 7.78384 0.812471 8.05329 0.549391C8.31646 0.280047 8.6799 0.129715 9.05587 0.129715C9.43184 0.129715 9.789 0.280047 10.0522 0.549391C10.3216 0.812471 10.472 1.17577 10.472 1.5516V7.21409H16.1366C16.5126 7.21409 16.876 7.36442 17.1392 7.6275C17.4086 7.89685 17.5527 8.25389 17.5527 8.62971Z" fill="white"/>
</svg>
