<svg width="29" height="19" viewBox="0 0 29 19" fill="none" xmlns="http://www.w3.org/2000/svg">
<path d="M18.324 14.2375C19.1119 14.2375 19.8921 14.0823 20.6201 13.7808C21.348 13.4793 22.0095 13.0373 22.5666 12.4802C23.1238 11.923 23.5657 11.2616 23.8673 10.5336C24.1688 9.80569 24.324 9.02547 24.324 8.23754C24.324 7.44961 24.1688 6.6694 23.8673 5.94144C23.5657 5.21349 23.1238 4.55205 22.5666 3.9949C22.0095 3.43775 21.348 2.99579 20.6201 2.69427C19.8921 2.39274 19.1119 2.23754 18.324 2.23754C16.7327 2.23754 15.2066 2.86968 14.0813 3.9949C12.9561 5.12012 12.324 6.64624 12.324 8.23754C12.324 9.82884 12.9561 11.355 14.0813 12.4802C15.2066 13.6054 16.7327 14.2375 18.324 14.2375ZM24.644 13.1435L28.224 16.7235C28.3194 16.8159 28.3955 16.9263 28.4479 17.0483C28.5002 17.1703 28.5277 17.3016 28.5287 17.4344C28.5298 17.5671 28.5044 17.6988 28.454 17.8217C28.4037 17.9445 28.3293 18.0561 28.2354 18.1499C28.1414 18.2438 28.0297 18.3179 27.9068 18.3681C27.7838 18.4183 27.6521 18.4435 27.5194 18.4423C27.3866 18.441 27.2554 18.4134 27.1334 18.3609C27.0115 18.3084 26.9012 18.2321 26.809 18.1365L23.229 14.5565C21.6215 15.8044 19.5988 16.3927 17.5727 16.2017C15.5467 16.0108 13.6696 15.0549 12.3235 13.5286C10.9775 12.0024 10.2637 10.0205 10.3274 7.98647C10.3912 5.95244 11.2277 4.01917 12.6666 2.58019C14.1056 1.14121 16.0389 0.30471 18.0729 0.240969C20.1069 0.177228 22.0888 0.891039 23.6151 2.23709C25.1413 3.58315 26.0972 5.46026 26.2882 7.4863C26.4792 9.51234 25.8908 11.535 24.643 13.1425L24.644 13.1435Z" fill="#181725"/>
<rect x="0.179443" y="0.23704" width="8.85499" height="2.39923" rx="1.19961" fill="#181725"/>
<rect x="0.179443" y="7.67523" width="6.46414" height="2.39923" rx="1.19961" fill="#181725"/>
<rect x="0.179443" y="15.1138" width="8.85499" height="2.39923" rx="1.19961" fill="#181725"/>
</svg>
