<svg width="24" height="25" viewBox="0 0 24 25" fill="none" xmlns="http://www.w3.org/2000/svg">
<path d="M23.9288 12.5172C23.9288 11.5279 23.8507 10.8059 23.6816 10.0573H12.6865V14.5226H19.1404C19.0103 15.6323 18.3077 17.3035 16.7462 18.4264L16.7243 18.5759L20.2008 21.3431L20.4416 21.3678C22.6536 19.2687 23.9288 16.1804 23.9288 12.5172Z" fill="white"/>
<path d="M12.6866 24.2822C15.8485 24.2822 18.5029 23.2126 20.4417 21.3677L16.7463 18.4264C15.7574 19.1349 14.4302 19.6296 12.6866 19.6296C9.58978 19.6296 6.96139 17.5307 6.02444 14.6295L5.8871 14.6415L2.27225 17.5159L2.22498 17.6509C4.15072 21.5815 8.10636 24.2822 12.6866 24.2822Z" fill="white"/>
<path d="M6.02441 14.6295C5.77719 13.8808 5.63411 13.0786 5.63411 12.2497C5.63411 11.4208 5.77719 10.6186 6.0114 9.86997L6.00485 9.71052L2.3447 6.78992L2.22495 6.84844C1.43125 8.47953 0.97583 10.3112 0.97583 12.2497C0.97583 14.1883 1.43125 16.0198 2.22495 17.6509L6.02441 14.6295Z" fill="white"/>
<path d="M12.687 4.86993C14.8859 4.86993 16.3693 5.84589 17.2151 6.66148L20.5201 3.34585C18.4903 1.40729 15.8488 0.217407 12.687 0.217407C8.10672 0.217407 4.15109 2.91801 2.22534 6.84858L6.0118 9.8701C6.96175 6.96895 9.59014 4.86993 12.687 4.86993Z" fill="white"/>
</svg>
