<svg width="23" height="20" viewBox="0 0 23 20" fill="none" xmlns="http://www.w3.org/2000/svg">
<path d="M3.73817 9.0097L11.5623 16.8338L19.3864 9.0097C20.0781 8.31795 20.4667 7.37974 20.4667 6.40146C20.4667 5.42319 20.0781 4.48497 19.3864 3.79323C19.0439 3.45071 18.6372 3.17901 18.1897 2.99364C17.7422 2.80827 17.2625 2.71286 16.7781 2.71286C15.7999 2.71286 14.8616 3.10148 14.1699 3.79323L11.5623 6.40085L8.95465 3.79446C8.26114 3.11199 7.32605 2.73121 6.35306 2.73505C5.38008 2.7389 4.44803 3.12706 3.75994 3.81499C3.07184 4.50292 2.68346 5.43488 2.67939 6.40787C2.67531 7.38085 3.05587 8.31603 3.73817 9.0097ZM10.6931 2.05358L11.5623 2.92279L12.4315 2.05358C13.0014 1.47866 13.6792 1.02197 14.4261 0.709725C15.173 0.39748 15.9742 0.235831 16.7837 0.234058C17.5932 0.232286 18.3951 0.390424 19.1434 0.699396C19.8916 1.00837 20.5715 1.46209 21.1439 2.0345C21.7163 2.60692 22.17 3.28676 22.479 4.035C22.7879 4.78324 22.9461 5.58514 22.9443 6.39466C22.9425 7.20418 22.7809 8.00538 22.4686 8.75225C22.1564 9.49913 21.6997 10.177 21.1248 10.7469L12.4327 19.4402C12.3185 19.5545 12.1829 19.6452 12.0337 19.7071C11.8844 19.7689 11.7245 19.8008 11.5629 19.8008C11.4013 19.8008 11.2413 19.7689 11.0921 19.7071C10.9428 19.6452 10.8072 19.5545 10.6931 19.4402L1.99976 10.7481C1.41702 10.18 0.952881 9.50192 0.634264 8.75307C0.315647 8.00422 0.148895 7.19956 0.143681 6.38577C0.138467 5.57198 0.294894 4.76525 0.60389 4.01238C0.912885 3.25951 1.3683 2.57549 1.94371 2C2.51912 1.42451 3.20307 0.968997 3.9559 0.659895C4.70872 0.350794 5.51543 0.194252 6.32923 0.199351C7.14302 0.20445 7.9477 0.371088 8.6966 0.689599C9.44549 1.00811 10.1237 1.47215 10.6918 2.05481L10.6931 2.05358Z" fill="#181725"/>
</svg>
