<svg width="21" height="21" viewBox="0 0 21 21" fill="currentColor" xmlns="http://www.w3.org/2000/svg">
<path d="M7.75904 7.75407C8.28904 8.22907 8.99104 8.51807 9.75904 8.51807H11.759C12.4972 8.51909 13.2096 8.24695 13.759 7.75407H7.75904ZM7.75904 7.75407C7.20957 8.24695 6.49717 8.51909 5.75904 8.51807L7.75904 7.75407ZM6.80904 2.51807V2.46807H6.75904H3.75904C3.48056 2.46807 3.21349 2.57869 3.01657 2.7756C2.81966 2.97252 2.70904 3.23959 2.70904 3.51807V5.51807C2.70904 5.79654 2.81966 6.06362 3.01657 6.26053C3.21349 6.45744 3.48056 6.56807 3.75904 6.56807H5.75904C6.03751 6.56807 6.30458 6.45744 6.5015 6.26053C6.69841 6.06362 6.80904 5.79654 6.80904 5.51807V2.51807ZM3.76904 8.46807H3.71904V8.51807V18.4831V18.5331H3.76904H5.75904H5.80904V18.4831V13.5181C5.80904 13.0009 6.01448 12.5049 6.38018 12.1392C6.74587 11.7735 7.24186 11.5681 7.75904 11.5681H9.75904C10.2762 11.5681 10.7722 11.7735 11.1379 12.1392C11.5036 12.5049 11.709 13.0009 11.709 13.5181V18.4831V18.5331H11.759H17.772H17.822V18.4831V8.51807V8.46807H17.772H15.759C15.0038 8.46807 14.3136 8.18391 13.7924 7.71683L13.759 7.68691L13.7256 7.71685C13.1854 8.20148 12.4849 8.46907 11.7591 8.46807H11.759H9.75904C9.00379 8.46807 8.31357 8.18391 7.79241 7.71683L7.75902 7.68691L7.72565 7.71685C7.18538 8.20148 6.48489 8.46907 5.75911 8.46807H5.75904H3.76904ZM1.7672 7.69519C1.47076 7.42442 1.23273 7.09573 1.06794 6.72925C0.896707 6.34848 0.808453 5.93564 0.809036 5.51814V5.51807V3.51807C0.809036 2.73568 1.11984 1.98533 1.67307 1.4321C2.2263 0.878869 2.97665 0.568066 3.75904 0.568066H17.759C18.5414 0.568066 19.2918 0.878869 19.845 1.4321C20.3982 1.98533 20.709 2.73568 20.709 3.51807V5.51807C20.709 6.3854 20.3354 7.1661 19.7385 7.70598L19.722 7.72087V7.74307V18.4831C19.722 19.0002 19.5166 19.4962 19.1509 19.8619C18.7852 20.2276 18.2892 20.4331 17.772 20.4331H10.132V20.4322L10.1227 20.4339C10.0028 20.4566 9.88106 20.468 9.75902 20.4681H7.75904C7.63701 20.468 7.51524 20.4566 7.39533 20.4339L7.39549 20.4331H7.38604H3.77004C3.25286 20.4331 2.75687 20.2276 2.39118 19.8619C2.02548 19.4962 1.82004 19.0002 1.82004 18.4831V7.76307V7.64237L1.7672 7.69519ZM9.80904 13.5181V13.4681H9.75904H7.75904H7.70904V13.5181V18.4831V18.5331H7.75904H9.75904V18.4841H9.80904V18.4831V18.4331V13.5181ZM12.809 2.51807V2.46807H12.759H8.75904H8.70904V2.51807V5.51807C8.70904 5.79654 8.81966 6.06362 9.01657 6.26053C9.21349 6.45744 9.48056 6.56807 9.75904 6.56807H11.759C12.0375 6.56807 12.3046 6.45744 12.5015 6.26053C12.6984 6.06362 12.809 5.79654 12.809 5.51807V2.51807ZM14.759 2.46807H14.709V2.51807V5.51807C14.709 5.79654 14.8197 6.06362 15.0166 6.26053C15.2135 6.45744 15.4806 6.56807 15.759 6.56807H17.759C18.0375 6.56807 18.3046 6.45744 18.5015 6.26053C18.6984 6.06362 18.809 5.79654 18.809 5.51807V3.51807C18.809 3.23959 18.6984 2.97252 18.5015 2.7756C18.3046 2.57869 18.0375 2.46807 17.759 2.46807H14.759ZM14.759 11.5681H15.759C16.011 11.5681 16.2526 11.6682 16.4308 11.8463C16.6089 12.0245 16.709 12.2661 16.709 12.5181V15.5181C16.709 15.77 16.6089 16.0117 16.4308 16.1898C16.2526 16.368 16.011 16.4681 15.759 16.4681H14.759C14.5071 16.4681 14.2654 16.368 14.0873 16.1898C13.9091 16.0117 13.809 15.77 13.809 15.5181V12.5181C13.809 12.2661 13.9091 12.0245 14.0873 11.8463C14.2654 11.6682 14.5071 11.5681 14.759 11.5681Z" fill="currentColor" stroke="white" stroke-width="0.1"/>
</svg>
