<svg width="16" height="16" viewBox="0 0 16 16" fill="currentColor" xmlns="http://www.w3.org/2000/svg">
<path d="M10.1374 4.53948L2.82 11.8569L2.34151 13.4891L3.94052 13.0268L11.2822 5.6851L10.1374 4.53948ZM11.3858 3.29104L12.5306 4.43585L13.5977 3.36876C13.6736 3.29285 13.7162 3.1899 13.7162 3.08256C13.7162 2.97522 13.6736 2.87227 13.5977 2.79636L13.0245 2.22395C12.9486 2.14806 12.8456 2.10543 12.7383 2.10543C12.631 2.10543 12.528 2.14806 12.4521 2.22395L11.3866 3.29104H11.3858ZM14.1701 1.07915L14.7425 1.65155C15.122 2.03112 15.3351 2.54585 15.3351 3.08256C15.3351 3.61927 15.122 4.134 14.7425 4.51357L4.79063 14.4663L1.37401 15.454C1.23475 15.4942 1.08726 15.4962 0.946939 15.4599C0.80662 15.4236 0.678619 15.3503 0.576298 15.2477C0.473977 15.145 0.401088 15.0168 0.365241 14.8763C0.329394 14.7359 0.331903 14.5884 0.372506 14.4493L1.38292 11.0043L11.3089 1.07834C11.6885 0.698883 12.2032 0.485718 12.7399 0.485718C13.2766 0.485718 13.7914 0.698883 14.1709 1.07834L14.1701 1.07915Z" fill="currentColor"/>
</svg>
